<svg xmlns="http://www.w3.org/2000/svg" xmlns:xlink="http://www.w3.org/1999/xlink" version="1.1" x="0px" y="0px" viewBox="0 0 512 512" style="enable-background:new 0 0 512 512;" xml:space="preserve"><g><g><path d="M244.7,328.8c-7,0-14.1-0.7-21.2-2.1c-27.8-5.6-51.7-21.7-67.4-45.3c-15.7-23.6-21.2-51.9-15.6-79.7    c5.6-27.8,21.7-51.7,45.3-67.4c23.6-15.7,51.9-21.2,79.7-15.6c27.8,5.6,51.7,21.7,67.4,45.3c15.7,23.6,21.2,51.9,15.6,79.7    c-5.6,27.8-21.7,51.7-45.3,67.4C285.6,322.7,265.4,328.8,244.7,328.8z M244.4,140.6c-16,0-31.6,4.7-45.2,13.7    c-18.3,12.1-30.7,30.6-35,52.1c-4.3,21.5,0,43.4,12.1,61.6c12.1,18.3,30.6,30.7,52.1,35c21.5,4.3,43.4,0,61.6-12.1    c18.3-12.1,30.7-30.6,35-52.1h0c4.3-21.5,0-43.4-12.1-61.6c-12.1-18.3-30.6-30.7-52.1-35C255.3,141.2,249.8,140.6,244.4,140.6z"></path><path d="M361.6,395.4c-3.6,0-7.2-1.6-9.5-4.7l-63-81.8c-4-5.3-3.1-12.8,2.2-16.8c5.2-4,12.8-3.1,16.8,2.2l63,81.8    c4,5.3,3.1,12.8-2.2,16.8C366.7,394.6,364.1,395.4,361.6,395.4z"></path></g></g></svg>